<?xml version="1.0" standalone="no"?><!DOCTYPE svg PUBLIC "-//W3C//DTD SVG 1.1//EN" "http://www.w3.org/Graphics/SVG/1.1/DTD/svg11.dtd"><svg t="1592448168526" class="icon" viewBox="0 0 1189 1024" version="1.1" xmlns="http://www.w3.org/2000/svg" p-id="2488" xmlns:xlink="http://www.w3.org/1999/xlink" width="148.625" height="128"><defs><style type="text/css"></style></defs><path d="M655.195419 839.490218a442.82574 442.82574 0 0 1-209.455059 51.988444c-118.287172 0.335847-231.792763-46.663233-315.217133-130.521684C46.664775 677.532609-0.334304 564.027018 0.002057 445.740874-0.334304 327.453187 46.664775 213.947596 130.522712 130.522712 213.947596 46.664775 327.453187-0.334304 445.74036 0.002057c118.287172-0.336362 231.792249 46.662718 315.216618 130.52117 83.858965 83.42437 130.857531 196.929961 130.521684 315.217133 0.004629 1.604661 0 3.208808-0.012344 4.811925-25.715721-9.285432-53.560703-14.803512-82.693014-15.794595-5.822039-195.267182-166.37557-352.214341-363.032944-352.214341-200.330608 0-363.197011 162.865888-363.197011 363.197011 0 200.330608 162.865888 363.196496 363.197011 363.196496 51.555391 0 100.62973-10.786716 145.085524-30.222658 17.016092 23.732524 38.896056 44.371962 64.369535 60.776534z" p-id="2489" fill="#ffffff"></path><path d="M514.841073 367.290439h56.003182v62.67744H487.27382l-11.88632 27.864527v38.584896h95.456755v62.974714H475.36487v84.461742H380.479518v-84.461742H287.606164V496.417302H380.479518v-38.562266l-11.612191-27.864012h-81.261678V367.313069h54.563617l-54.563617-128.258186h106.520173l34.516155 128.258186 33.967895-128.258186h108.234383z" p-id="2490" fill="#ffffff"></path><path d="M528.281651 693.364749c0-182.112563 148.053633-330.166196 330.189855-330.166196 182.112048 0 330.166196 148.053633 330.166196 330.166196 0 182.113077-148.054148 330.189854-330.166711 330.189855-182.135707 0-330.18934-148.076777-330.18934-330.189855z m307.371781-112.610169h-241.712345v33.149107h99.171134v107.182095h-106.077348v33.149107h106.077348v76.519699h40.054807v-76.519699h107.182609v-33.149107h-107.182609v-107.182095h102.486404v-33.149107z m-240.607598 48.894842l17.679558 58.56344c4.051255 12.338917 12.523042 18.508633 25.414333 18.508633h42.817703v-33.149622h-27.348154c-3.130632 0-5.432703-2.301557-6.906214-6.905699l-11.049531-37.016752h-40.607695z m196.685147 1.104748l-10.22097 35.635817c-2.026399 4.788267-4.604143 7.181886-7.735289 7.181886h-26.242893v33.149622h39.502947c15.837798 0 25.782582-6.630027 29.834351-19.889567l15.469549-56.077758h-40.607695z m172.099376-17.955745h-28.452902v-35.359116h-37.569126v35.359116h-26.795781v35.359116h26.795781v144.751735h-27.900528v35.359116h95.027303v-35.359116h-29.557649v-144.751735h28.452902v-35.359116z m33.425293-35.359116l-11.04953 31.491472c-2.026399 6.445903-5.432703 9.669111-10.220971 9.669111h-5.249093v31.767658h22.100091c11.41778 0 19.612866-5.985077 24.585257-17.955745l1.104748-2.762383h61.326336v158.839836c0 5.340641-2.947022 8.010961-8.840036 8.010961h-38.397686v34.254369h51.65774c23.572573 0 35.359116-10.036846 35.359116-30.110538v-205.248996h-86.740669l7.458588-17.955745H997.25565z m-22.375763 82.873025l17.403372 36.464377c4.604143 8.103024 10.22097 12.154278 16.850997 12.154278h56.629617v-32.87292h-34.253854c-3.499395 0-5.801467-1.288872-6.906214-3.867644l-5.248578-11.878091h-44.47534z m39.779135 60.773448l-8.287149 31.215799c-1.473511 4.419504-3.499395 6.629513-6.077653 6.629513h-31.767658v32.87292h46.13246c14.733051 0 23.941336-5.985077 27.623827-17.955745l14.364801-52.762487h-41.988628z" p-id="2491" fill="#ffffff"></path></svg>