<?xml version="1.0" standalone="no"?><!DOCTYPE svg PUBLIC "-//W3C//DTD SVG 1.1//EN" "http://www.w3.org/Graphics/SVG/1.1/DTD/svg11.dtd"><svg t="1592447977745" class="icon" viewBox="0 0 1024 1024" version="1.1" xmlns="http://www.w3.org/2000/svg" p-id="1536" xmlns:xlink="http://www.w3.org/1999/xlink" width="128" height="128"><defs><style type="text/css"></style></defs><path d="M97.103448 979.862069a52.965517 52.965517 0 0 1-37.428965-90.394483l829.793103-829.793103a52.965517 52.965517 0 1 1 74.857931 74.857931l-829.793103 829.793103c-10.310621 10.345931-23.869793 15.536552-37.428966 15.536552zM1024 776.827586c0-136.297931-110.874483-247.172414-247.172414-247.172414s-247.172414 110.874483-247.172414 247.172414 110.874483 247.172414 247.172414 247.172414 247.172414-110.874483 247.172414-247.172414z m-105.931034 0c0 77.894621-63.346759 141.241379-141.24138 141.24138s-141.241379-63.346759-141.241379-141.24138 63.346759-141.241379 141.241379-141.241379 141.241379 63.346759 141.24138 141.241379zM494.344828 247.172414c0-136.297931-110.874483-247.172414-247.172414-247.172414S0 110.874483 0 247.172414s110.874483 247.172414 247.172414 247.172414 247.172414-110.874483 247.172414-247.172414z m-105.931035 0c0 77.894621-63.346759 141.241379-141.241379 141.241379S105.931034 325.067034 105.931034 247.172414s63.346759-141.241379 141.24138-141.24138 141.241379 63.346759 141.241379 141.24138z" p-id="1537" fill="#ffffff"></path></svg>